<?xml version="1.0" standalone="no"?>
<!DOCTYPE svg PUBLIC "-//W3C//DTD SVG 20010904//EN"
 "http://www.w3.org/TR/2001/REC-SVG-20010904/DTD/svg10.dtd">
<svg version="1.0" xmlns="http://www.w3.org/2000/svg"
 width="256.000000pt" height="256.000000pt" viewBox="0 0 256.000000 256.000000"
 preserveAspectRatio="xMidYMid meet">

<g transform="translate(0.000000,256.000000) scale(0.100000,-0.100000)"
fill="#000000" stroke="none">
<path d="M731 2194 c-69 -18 -168 -47 -220 -63 -53 -17 -122 -38 -153 -46
l-58 -16 0 -89 c0 -222 89 -742 257 -1497 l67 -303 671 0 671 0 11 53 c7 28
50 223 98 432 135 602 234 1113 260 1341 l7 61 -129 37 c-70 21 -193 55 -273
77 -80 22 -152 42 -161 44 -12 4 -23 -12 -44 -62 -28 -68 -62 -116 -75 -108
-4 3 -10 25 -13 50 -2 25 -8 49 -11 53 -4 3 -57 -11 -119 -31 -156 -51 -228
-51 -385 0 -125 42 -131 41 -133 -27 0 -19 -4 -43 -8 -53 -6 -17 -11 -14 -44
22 -20 23 -37 46 -37 52 0 16 -42 109 -49 108 -3 -1 -62 -16 -130 -35z m265
-244 c4 -33 12 -64 18 -69 7 -6 61 7 156 40 80 28 150 50 155 50 21 0 120 -40
123 -50 2 -5 9 -8 15 -5 7 2 47 -7 89 -20 91 -28 94 -26 104 57 4 31 11 57 16
57 5 0 7 -12 4 -27 -12 -58 -42 -304 -106 -868 -22 -192 -43 -365 -46 -382
l-5 -33 -204 0 -204 0 -6 33 c-3 17 -14 115 -25 217 -29 265 -77 665 -105 877
-30 220 -30 206 -5 193 14 -8 21 -25 26 -70z"/>
<path d="M1304 2190 c0 -11 5 -20 11 -20 6 0 11 9 11 20 0 11 -5 20 -11 20 -6
0 -11 -9 -11 -20z"/>
</g>
</svg>
